<svg width="15" height="16" viewBox="0 0 15 16" fill="none" stroke="#52575C" xmlns="http://www.w3.org/2000/svg">
<path d="M4.66666 14.6667H2.66666C2.31304 14.6667 1.9739 14.5262 1.72385 14.2761C1.4738 14.0261 1.33333 13.687 1.33333 13.3333V8.66666C1.33333 8.31304 1.4738 7.9739 1.72385 7.72385C1.9739 7.4738 2.31304 7.33333 2.66666 7.33333H4.66666M9.33333 6V3.33333C9.33333 2.8029 9.12262 2.29419 8.74754 1.91911C8.37247 1.54404 7.86376 1.33333 7.33333 1.33333L4.66666 7.33333V14.6667H12.1867C12.5082 14.6703 12.8202 14.5576 13.0653 14.3493C13.3103 14.1411 13.4718 13.8513 13.52 13.5333L14.44 7.53333C14.469 7.34223 14.4561 7.14712 14.4022 6.9615C14.3483 6.77588 14.2547 6.60419 14.1279 6.45834C14.0011 6.31248 13.844 6.19595 13.6677 6.11681C13.4914 6.03766 13.2999 5.99781 13.1067 6H9.33333Z"  stroke-linecap="round" stroke-linejoin="round"/>
</svg>
