<svg width="34" height="28" viewBox="0 0 34 28" fill="none" xmlns="http://www.w3.org/2000/svg">
<path d="M33.3 3.69581C32.08 4.22411 30.75 4.60431 29.37 4.75241C30.8 3.90561 31.87 2.56781 32.38 0.990007C31.04 1.78571 29.57 2.34361 28.05 2.63911C27.41 1.95631 26.63 1.41241 25.78 1.04131C24.92 0.670107 23.9899 0.479607 23.0599 0.481707C19.2799 0.481707 16.23 3.54771 16.23 7.31011C16.23 7.83841 16.3 8.36681 16.4 8.87511C10.74 8.57891 5.68996 5.87321 2.32996 1.73051C1.71996 2.77561 1.40002 3.96561 1.40002 5.17671C1.40002 7.54631 2.59994 9.6356 4.43994 10.8644C3.35994 10.8218 2.29999 10.5242 1.35999 9.99581V10.0799C1.35999 13.398 3.69996 16.1478 6.82996 16.7802C6.23996 16.9327 5.64003 17.0107 5.03003 17.0124C4.59003 17.0124 4.16999 16.9684 3.73999 16.9083C4.60999 19.6141 7.12 21.5794 10.12 21.6434C7.77999 23.4806 4.84002 24.5613 1.65002 24.5613C1.08002 24.5613 0.55 24.5413 0 24.4772C3.02 26.4185 6.61998 27.5392 10.48 27.5392C23.03 27.5392 29.9 17.1405 29.9 8.11461C29.9 7.81841 29.9 7.52221 29.88 7.22601C31.21 6.25341 32.3801 5.04861 33.3 3.69581Z" fill="white"/>
</svg>
