<svg width="33" height="33" viewBox="0 0 33 33" fill="none" xmlns="http://www.w3.org/2000/svg">
<path d="M31.3601 0H1.90015C1.19015 0 0.620117 0.572399 0.620117 1.2809V30.74C0.620117 31.4484 1.19015 32.0208 1.90015 32.0208H31.3601C32.0601 32.0208 32.6401 31.4484 32.6401 30.74V1.2809C32.6401 0.572399 32.0601 0 31.3601 0ZM10.1101 27.2857H5.36011V12.0038H10.1101V27.2857ZM7.74011 9.9145C7.20011 9.9145 6.66008 9.7529 6.21008 9.4504C5.76008 9.1478 5.40007 8.7177 5.20007 8.2145C4.99007 7.7113 4.93016 7.1576 5.04016 6.6234C5.15016 6.0893 5.41016 5.5986 5.79016 5.2134C6.18016 4.8283 6.67007 4.5661 7.20007 4.4598C7.74007 4.3535 8.29016 4.4081 8.79016 4.6165C9.30016 4.8249 9.73015 5.1779 10.0302 5.6307C10.3302 6.0836 10.4901 6.616 10.4901 7.1607C10.4901 8.6817 9.26011 9.9145 7.74011 9.9145ZM27.9001 27.2857H23.1501V19.8529C23.1501 18.0798 23.1201 15.8023 20.6901 15.8023C18.2201 15.8023 17.8401 17.7315 17.8401 19.7248V27.2857H13.0901V12.0038H17.6501V14.0932H17.7101C18.3401 12.8924 19.8901 11.6236 22.2101 11.6236C27.0201 11.6236 27.9001 14.7896 27.9001 18.9043V27.2857Z" fill="white"/>
</svg>
