<svg width="33" height="33" viewBox="0 0 33 33" fill="none" xmlns="http://www.w3.org/2000/svg">
<path d="M31.3699 0H1.90991C1.19991 0 0.629883 0.572399 0.629883 1.2809V30.74C0.629883 31.4484 1.19991 32.0208 1.90991 32.0208H31.3699C32.0799 32.0208 32.6499 31.4484 32.6499 30.74V1.2809C32.6499 0.572399 32.0799 0 31.3699 0ZM27.6699 9.3461H25.1199C23.1099 9.3461 22.7198 10.2987 22.7198 11.6996V14.7856H27.5099L26.8799 19.6168H22.7198V32.0208H17.7299V19.6208H13.5598V14.7856H17.7299V11.2233C17.7299 7.0886 20.2598 4.8352 23.9498 4.8352C25.7198 4.8352 27.2299 4.9672 27.6799 5.0273V9.3461H27.6699Z" fill="white"/>
</svg>
